<?xml version="1.0" encoding="UTF-8"?>
<svg xmlns="http://www.w3.org/2000/svg" viewBox="0 0 512 512">
  <rect width="512" height="512" fill="#0c0907"/>
  <rect x="32" y="32" width="448" height="448" fill="none" stroke="#3d2f23" stroke-width="3"/>
  <rect x="48" y="48" width="416" height="416" fill="none" stroke="#8b5a2b" stroke-width="1"/>
  <line x1="180" y1="116" x2="220" y2="116" stroke="#8b5a2b" stroke-width="2"/>
  <line x1="292" y1="116" x2="332" y2="116" stroke="#8b5a2b" stroke-width="2"/>
  <g transform="translate(256 116) rotate(45)">
    <rect x="-7" y="-7" width="14" height="14" fill="none" stroke="#d4a05a" stroke-width="2"/>
  </g>
  <g transform="translate(256 280)" stroke="#d4a05a" stroke-width="6" fill="none" stroke-linecap="round" stroke-linejoin="round">
    <path d="M -100 -60 L 100 -60 L 0 50 Z"/>
    <path d="M -82 -48 L 82 -48 L 0 42 Z" fill="#8b5a2b" fill-opacity="0.55" stroke="none"/>
    <line x1="0" y1="50" x2="0" y2="118"/>
    <line x1="-50" y1="118" x2="50" y2="118"/>
  </g>
  <g transform="translate(256 280)">
    <line x1="-60" y1="-100" x2="40" y2="-20" stroke="#f5ead2" stroke-width="2.5" stroke-linecap="round"/>
    <circle cx="40" cy="-20" r="9" fill="#5a6b2a" stroke="#3d4a1a" stroke-width="1.5"/>
    <circle cx="40" cy="-20" r="3" fill="#8b2424"/>
  </g>
  <text x="256" y="416" text-anchor="middle"
        font-family="Georgia, 'Times New Roman', serif"
        font-size="36" font-weight="500"
        letter-spacing="8"
        fill="#f5ead2">THE BAR</text>
  <line x1="180" y1="442" x2="220" y2="442" stroke="#8b5a2b" stroke-width="2"/>
  <line x1="292" y1="442" x2="332" y2="442" stroke="#8b5a2b" stroke-width="2"/>
  <g transform="translate(256 442) rotate(45)">
    <rect x="-5" y="-5" width="10" height="10" fill="#d4a05a"/>
  </g>
</svg>
